<svg id="bikcraft" xmlns="http://www.w3.org/2000/svg" width="200" height="124" viewBox="0 0 200 124">
  <path id="Caminho_4" data-name="Caminho 4" d="M9.249,10.188c3.118-.124,10.722-.374,14.588-1.251-.126,1.628-.375,6.633-.375,16.142v4.254c3.491-2.879,6.359-4.38,9.85-4.38a10.258,10.258,0,0,1,8.977,4.631A19.689,19.689,0,0,1,44.783,39.72c0,11.636-5.486,18.268-16.583,18.268a20.855,20.855,0,0,1-8.727-2.128c-1.5.5-3.491,1.5-5.486,2.128l-.624-.376c.126-3.379.126-9.76.126-18.395V23.2c0-4-.126-6.757-.249-9.133-.126-1.628-.5-1.878-4.239-1.878ZM28.2,55.61c4.239,0,6.234-5.131,6.234-14.641a20.73,20.73,0,0,0-1.745-9.259,4.494,4.494,0,0,0-3.99-2.5,5.738,5.738,0,0,0-4.614,2.753c-.622.877-.872,1.628-.872,11.512,0,8.134.375,8.384.874,9.385A4.487,4.487,0,0,0,28.2,55.61Zm38.4,1.628c-2.619,0-5.236-.252-9.352-.252-4.363,0-6.483.252-8.6.252V55.11c3.491-.126,3.99-.751,4.115-2.128.124-1.5.249-3.878.249-7.758V37.216c0-3.253,0-5.88-.126-7.007s-.624-1.5-3.866-1.375V26.7c4.365-.374,9.6-.5,13.84-1.375-.126,1.628-.249,4.631-.249,11.512v8.635c0,4,.126,5.756.249,7.508s.624,2,3.74,2.376ZM57.248,10.815c3.244,0,5.113,1.878,5.113,5.255,0,2.879-2.12,4.881-5.362,4.881a4.655,4.655,0,0,1-4.861-4.881,4.951,4.951,0,0,1,5.113-5.255Zm12.593-.627A91.612,91.612,0,0,0,83.432,8.937q-.253,7.755-.251,15.516V40.094c2.37-.627,7.481-6.883,9.475-10.511.375-.751.375-1.127-.622-1.127l-2.743-.25V26.08c4.614.126,9.352-.126,14.089-.376v2.128c-3.491.376-4.863.627-6.236,1.752A58.455,58.455,0,0,0,91.16,35.84c1.5,3.129,7.732,14.641,10.1,17.768a3.471,3.471,0,0,0,3.118,1.5l1.743.126L106,57.362a92.093,92.093,0,0,0-13.84.751c-1.5-3.5-5.984-12.012-7.355-14.641C84.055,42.1,83.68,41.6,83.181,41.72c0,5.131-.124,7.634.126,11.261.126,1.628.5,2.128,3.866,2.252v2.128c-2.37,0-4.863-.25-8.977-.25-4.863,0-6.982.25-8.853.25V55.234c3.242-.124,3.74-.749,3.866-2,.124-1.5.247-4.755.247-11.261V25.83c0-5.131,0-9.009-.124-12.262q0-1.126-1.5-1.127h-2.12ZM39.8,88.143c-2.12,6.757-6.234,10.01-13.092,10.01-5.861,0-9.6-1.628-12.218-5.131-1.995-2.627-2.992-6.507-2.992-10.885,0-9.636,5.861-17.017,16.583-17.017,6.483,0,11.221,3,11.221,7.884,0,3.377-2.743,4.753-4.987,4.753a5.641,5.641,0,0,1-2.494-.625,1.958,1.958,0,0,1-.874-2.252,18.913,18.913,0,0,0,.375-2.629c0-3.127-1.123-4.629-3.491-4.629-3.866,0-5.861,5.632-5.861,13.39,0,3.127.375,6.631,1.5,8.757,1.247,2.879,3.242,4.5,6.234,4.5,3.74,0,6.11-2.126,7.856-7.007ZM46.9,79.01a70.159,70.159,0,0,0-.375-8.761A1.315,1.315,0,0,0,45.03,69H42.786V66.871c3.74-.126,8.853-.376,12.468-1.5l.375.25c.249,1.5.5,5.131.624,7.383H56.5c1.624-4.38,3.866-7.884,8.48-7.884a4.708,4.708,0,0,1,4.614,5.005c0,4.13-3.118,5.381-4.365,5.381a2.412,2.412,0,0,1-2.494-1.253c-.622-1.375-1-2.126-2.242-2.126-1.372,0-2.12,1.251-2.992,3.253a13.329,13.329,0,0,0-.624,4.5c0,7.133,0,11.137.126,12.889s.746,2.25,5.733,2.376l-.124,2.128c-3.491-.126-6.609-.252-10.223-.252-3.74,0-6.483.126-9.6.252l.373-2.128c2.992-.126,3.74-.5,3.74-1.752.126-1.752.249-5.131.249-9.009V79.008H46.9Zm42.266-5.756c0-3.756-1.249-5.758-3.742-5.758-2.867,0-4.237,1.628-4.237,4.631a14.016,14.016,0,0,0,.247,2.378,1.785,1.785,0,0,1-.746,1.876A6.8,6.8,0,0,1,77.2,77.508c-2.37,0-4.365-1.129-4.365-3.88,0-4,5.861-8.509,14.089-8.509,6.73,0,9.723,2.753,10.846,4.5a6.3,6.3,0,0,1,1,3.379V91.4c0,2.128.624,2.629,1.372,2.629,1,0,2.118-1.628,2.617-4.38l2.12,1c-1.123,5.381-4.365,7.634-8.853,7.634-3.866,0-5.984-1.628-6.609-4.881-2.992,3-6.108,4.881-9.35,4.881-5.236,0-8.727-3.5-8.727-9.261,0-3.5,1.5-5.506,4.115-6.631,4.237-1.878,10.6-3.754,13.712-6.006V73.252ZM81.312,87.142c0,2.753,1.123,5.756,3.866,5.756,1.995,0,2.867-1.251,3.491-2.5a9.327,9.327,0,0,0,.373-3V78.884c-1.372.877-3.491,1.878-5.113,2.879C82.433,82.764,81.312,84.013,81.312,87.142ZM106,66.247l3.99.124v-2c.126-5.255,1.372-9.135,4.115-11.888a12.3,12.3,0,0,1,9.1-3.754c5.113,0,7.856,2.5,7.856,5.756,0,2.378-1.995,4-4.74,4a2.36,2.36,0,0,1-2.494-2.5c0-2.627-.373-4.753-2.242-4.753-1.249,0-1.995,1.125-2.246,3.253-.247,2,.126,5.756.375,11.636h6.11l-.375,2.5L119.712,69c-.126,2.376-.126,6.507-.126,11.385,0,4.631,0,8.759.126,12.012.126,1.628.375,2.252,1.745,2.378a33.122,33.122,0,0,0,3.367.248l-.253,2.128c-2.368,0-6.108-.25-9.35-.25-3.367,0-7.357.25-9.6.25l.126-2.128c3.242-.124,3.74-.5,3.866-1.876.247-2.128.247-5.381.247-9.76V68.873l-4.237-.25L106,66.245Z" transform="translate(8.953 8.891)" fill="#fec63e"/>
  <path id="Caminho_5" data-name="Caminho 5" d="M89.82,43.1l-.251,2.368-7.6.5c0,2.619-.126,6.483-.126,11.72,0,5.486,0,9.226.251,11.47.124,1.622.746,2.37,1.995,2.37,2.617,0,4.237-2.869,4.861-5.486h1l.874,2.867c-1.5,3.617-5.238,6.11-10.724,6.11-2.992,0-5.609-1-6.856-2.494a6.869,6.869,0,0,1-1.247-4.488c0-5.113.249-16.583.249-22.069l-3.99-.375.249-2.368h3.74c.126-2.37.126-5.113.126-7.606A34.457,34.457,0,0,0,81.715,32l.748.126q-.327,5.542-.375,11.1H89.82V43.1Z" transform="translate(68.295 32.156)" fill="#fec63e"/>
  <path id="Caminho_6" data-name="Caminho 6" d="M190,10V114H10V10H190ZM200,0H0V124H200Z" fill="#fec63e"/>
</svg>
